HIERARCHY
ROOT Bip001_Pelvis
{
  OFFSET 3.67809 93.2994 -2.41599
  CHANNELS 6 Xposition Yposition Zposition Zrotation Xrotation Yrotation
  JOINT Bip001_Spine
  {
    OFFSET 1.44608e-005 10.4157 -0.0118244
    CHANNELS 3 Zrotation Xrotation Yrotation
    JOINT Bip001_L_Thigh
    {
      OFFSET 11.2582 -10.4157 0.0118432
      CHANNELS 3 Zrotation Xrotation Yrotation
      JOINT Bip001_L_Calf
      {
        OFFSET -0.720717 -44.8687 0.366937
        CHANNELS 3 Zrotation Xrotation Yrotation
        JOINT Bip001_L_Foot
        {
          OFFSET -0.664439 -41.3745 -3.62995
          CHANNELS 3 Zrotation Xrotation Yrotation
          JOINT Bip001_L_Toe0
          {
            OFFSET 0.0541048 -10.4146 13.4033
            CHANNELS 3 Zrotation Xrotation Yrotation
            End Site
            {
              OFFSET -1.04503e-005 0 7.70137
            }
          }
        }
      }
    }
    JOINT Bip001_R_Thigh
    {
      OFFSET -11.2582 -10.4156 0.0118122
      CHANNELS 3 Zrotation Xrotation Yrotation
      JOINT Bip001_R_Calf
      {
        OFFSET 0.72059 -44.8687 0.36676
        CHANNELS 3 Zrotation Xrotation Yrotation
        JOINT Bip001_R_Foot
        {
          OFFSET 0.664321 -41.3745 -3.62979
          CHANNELS 3 Zrotation Xrotation Yrotation
          JOINT Bip001_R_Toe0
          {
            OFFSET -0.05417 -10.4146 13.4033
            CHANNELS 3 Zrotation Xrotation Yrotation
            End Site
            {
              OFFSET -1.04873e-005 0 7.70137
            }
          }
        }
      }
    }
    JOINT Bip001_Spine1
    {
      OFFSET 1.90638e-005 14.8539 1.10727
      CHANNELS 3 Zrotation Xrotation Yrotation
      JOINT Bip001_Spine2
      {
        OFFSET 2.28934e-005 14.7848 -1.7233
        CHANNELS 3 Zrotation Xrotation Yrotation
        JOINT Bip001_Neck
        {
          OFFSET 2.24514e-005 15.6905 -0.498826
          CHANNELS 3 Zrotation Xrotation Yrotation
          JOINT Bip001_L_Clavicle
          {
            OFFSET 6.17691 -0.000591152 0.00852867
            CHANNELS 3 Zrotation Xrotation Yrotation
            JOINT Bip001_L_UpperArm
            {
              OFFSET 11.773 -0.0611878 0.00197697
              CHANNELS 3 Zrotation Xrotation Yrotation
              JOINT Bip001_L_Forearm
              {
                OFFSET 26.4515 0.0817568 -2.19579
                CHANNELS 3 Zrotation Xrotation Yrotation
                JOINT Bip001_L_Hand
                {
                  OFFSET 32.8678 0.156744 1.67112
                  CHANNELS 3 Zrotation Xrotation Yrotation
                  JOINT Bip001_L_Finger0
                  {
                    OFFSET 6.16268 -2.25226 6.01673
                    CHANNELS 3 Zrotation Xrotation Yrotation
                    End Site
                    {
                      OFFSET 4.30499 -1.46663 0.618147
                    }
                  }
                  JOINT Bip001_L_Finger1
                  {
                    OFFSET 11.2958 -0.718375 -0.201963
                    CHANNELS 3 Zrotation Xrotation Yrotation
                    End Site
                    {
                      OFFSET 6.31953 -0.405163 -0.0802301
                    }
                  }
                }
              }
            }
          }
          JOINT Bip001_R_Clavicle
          {
            OFFSET -6.17691 -0.000574027 0.00851165
            CHANNELS 3 Zrotation Xrotation Yrotation
            JOINT Bip001_R_UpperArm
            {
              OFFSET -11.773 -0.0611516 0.00194365
              CHANNELS 3 Zrotation Xrotation Yrotation
              JOINT Bip001_R_Forearm
              {
                OFFSET -26.4514 0.0822335 -2.19736
                CHANNELS 3 Zrotation Xrotation Yrotation
                JOINT Bip001_R_Hand
                {
                  OFFSET -32.8679 0.156816 1.67143
                  CHANNELS 3 Zrotation Xrotation Yrotation
                  JOINT Bip001_R_Finger0
                  {
                    OFFSET -6.16275 -2.25224 6.01668
                    CHANNELS 3 Zrotation Xrotation Yrotation
                    End Site
                    {
                      OFFSET -4.30502 -1.46661 0.618132
                    }
                  }
                  JOINT Bip001_R_Finger1
                  {
                    OFFSET -11.2958 -0.718342 -0.201993
                    CHANNELS 3 Zrotation Xrotation Yrotation
                    End Site
                    {
                      OFFSET -6.31957 -0.405145 -0.0802473
                    }
                  }
                }
              }
            }
          }
          JOINT Bip001_Head
          {
            OFFSET 1.11782e-005 11.4912 2.09908
            CHANNELS 3 Zrotation Xrotation Yrotation
            End Site
            {
              OFFSET 2.95144e-005 21.2823 -2.83069e-005
            }
          }
        }
      }
    }
  }
}
MOTION
Frames:	10
Frame Time:	0.0333333
4.92894 86.1151 21.1765 -13.1146 -10.796 -36.4827 -0.815034 4.25618 -6.67432 9.5876 -14.6152 15.5333 1.21201 63.7289 3.49401 -9.9399 0.598222 -26.2263 -3.87631e-006 2.80822e-006 7.34544e-007 0.676416 -6.14861 3.34698 0.144893 49.928 8.4824 4.96385 -29.0841 6.36882 1.58794e-008 -4.26701e-007 4.89013e-010 -0.226555 8.36256 -7.47856 -0.226534 8.36253 -7.47853 -4.81431 5.56618 -41.5362 0.115944 -7.81052 47.0043 -55.874 48.6565 -23.9199 -4.70969 2.71497 -56.3221 -3.27305 5.66711 -12.1678 -0 0 7.95139e-016 -3.18055e-015 1.59028e-015 7.95139e-016 13.9031 1.80153 21.6531 53.4314 34.3262 24.5262 5.13324 7.97435 110.925 0.585996 -1.06653 27.1539 3.18055e-015 3.18055e-015 -0 3.18055e-015 3.18056e-015 3.18055e-015 16.9914 -9.45137 -34.3369 
5.54526 85.9649 23.3355 -13.7304 -10.1639 -40.9354 -0.613189 4.39698 -6.41921 11.0812 -13.3375 12.5566 0.846182 55.4251 4.37415 -8.81006 1.73919 -23.5148 -3.87631e-006 2.80822e-006 7.34544e-007 -1.27392 -6.099 4.56874 0.159722 49.2281 8.39013 4.37658 -27.2966 7.61639 1.58793e-008 -4.26701e-007 4.89013e-010 0.16957 8.63645 -6.98586 0.169577 8.63646 -6.98583 -5.08629 4.3961 -41.4566 -0.970196 -7.16443 46.6877 -57.8746 44.9288 -20.5779 -4.75097 2.78232 -57.1066 -6.36658 1.28722 -14.2021 6.36111e-015 -3.18055e-015 -3.97569e-015 6.36111e-015 -4.77083e-015 -4.77083e-015 10.4787 1.40711 24.8955 58.7823 32.3135 20.2456 5.0501 8.16144 112.973 -2.59455 0.228378 27.7804 -9.54166e-015 0 -3.18055e-015 -9.54166e-015 0 -9.54166e-015 16.8905 -8.80122 -33.4448 
6.12766 85.9593 25.692 -14.4133 -9.23296 -45.8186 -0.395162 4.5144 -6.10322 13.2252 -11.0946 9.9177 0.602737 46.1727 5.05768 -7.38784 3.08584 -20.1928 -3.87631e-006 2.80822e-006 7.34544e-007 -2.99178 -6.08288 6.38432 0.178221 47.8646 8.26225 3.60742 -25.0337 8.48069 1.58793e-008 -4.26701e-007 4.89016e-010 0.591251 8.86647 -6.37185 0.59125 8.86646 -6.3718 -6.15318 3.89668 -41.3997 -0.494108 -6.04085 46.5483 -58.3568 44.0645 -19.5975 -4.73604 2.75774 -56.8213 -7.56368 -5.83466 -16.3076 2.48282e-032 -1.19271e-015 1.19271e-015 -3.18055e-015 -1.19271e-015 -5.96354e-016 8.99775 1.44779 27.6966 62.7319 30.9518 17.0178 4.97615 8.314 114.669 -4.37519 -0.273943 29.3945 3.18055e-015 -3.18055e-015 -0 -1.76556e-031 -3.18056e-015 -3.18055e-015 16.2146 -7.14109 -32.2559 
6.57367 86.0415 28.1289 -15.1231 -8.19151 -50.9592 -0.317431 4.56416 -5.75558 15.5454 -8.1091 7.70099 0.44401 37.007 5.52278 -6.25357 4.64371 -19.4026 -3.87631e-006 2.80822e-006 7.34544e-007 -4.70349 -6.1094 7.84634 0.196433 46.245 8.12553 2.78914 -22.6419 10.4197 1.58793e-008 -4.26701e-007 4.89022e-010 0.723777 8.9713 -5.68148 0.723784 8.9713 -5.68144 -5.819 4.43522 -41.365 0.289087 -6.03581 46.4947 -57.5027 46.7687 -20.2553 -4.72207 2.73497 -56.5555 -4.4154 -11.8395 -16.6277 -8.72436e-032 2.28602e-015 2.18663e-015 8.27608e-032 2.38542e-015 -1.98785e-015 9.44379 1.12488 28.1468 63.7675 30.8257 15.8551 4.9532 8.35912 115.176 -2.8005 -0.313444 31.1083 -1.76556e-031 3.18055e-015 3.18055e-015 -3.53113e-031 6.36111e-015 3.18055e-015 15.6405 -5.3381 -30.8611 
6.91133 86.2245 30.6453 -15.6699 -7.02163 -56.1312 -0.275636 4.50939 -5.30023 17.6109 -5.56106 5.80982 0.368061 30.9019 5.71155 -5.71818 5.62771 -21.3944 -3.87631e-006 2.80822e-006 7.34544e-007 -6.77126 -6.19565 8.37891 0.216035 44.1895 7.96953 2.00302 -20.1386 13.057 1.58794e-008 -4.26701e-007 4.89019e-010 0.770548 8.87279 -4.7683 0.77056 8.87278 -4.76821 -5.56594 5.616 -41.1755 1.57336 -6.44138 46.331 -55.7906 49.6618 -22.0831 -4.7399 2.76408 -56.8952 0.369781 -12.4737 -14.3094 6.36111e-015 0 -5.1684e-015 3.86217e-032 7.95139e-016 -2.78299e-015 11.7056 1.1423 27.0742 63.7256 30.5561 14.5927 4.93452 8.39508 115.581 0.275179 0.671903 30.9316 -1.76556e-031 -3.18055e-015 -3.18055e-015 3.18055e-015 -6.36111e-015 -3.18055e-015 14.8041 -2.77117 -29.0111 
7.43244 86.1972 33.3997 -15.6297 -6.1549 -61.1837 -0.352982 4.42423 -4.84213 18.5069 -2.96099 4.11576 0.323848 26.2001 5.84456 -5.29739 6.65484 -24.4616 -3.87631e-006 2.80822e-006 7.34544e-007 -9.58982 -7.17682 8.34504 0.220877 42.7222 7.80943 1.13925 -18.1171 16.2399 1.58793e-008 -4.26701e-007 4.89016e-010 0.577384 8.71777 -3.83943 0.577382 8.71775 -3.83939 -5.01229 6.95821 -40.8593 2.70875 -7.19622 46.0754 -55.8773 49.0562 -22.7532 -4.79516 2.85677 -57.9669 1.79854 -6.02955 -11.7395 -3.18055e-015 1.59028e-015 -7.95139e-016 2.20695e-032 1.59028e-015 -7.95139e-016 13.4067 0.591759 26.8281 63.7571 28.8825 12.3195 4.85679 8.53858 117.215 2.19188 1.66463 29.7598 3.18055e-015 0 -0 -1.76556e-031 3.18056e-015 3.18055e-015 13.6395 0.212531 -26.9256 
8.05834 85.9701 36.2585 -15.6235 -5.40475 -65.5772 -0.402935 4.47018 -4.55451 18.9119 -1.41802 4.29135 0.311049 24.3795 5.89492 -4.85739 7.1421 -28.5414 -3.87631e-006 2.80822e-006 7.34544e-007 -12.1684 -8.34337 8.55244 0.234533 41.4105 7.63623 -0.281687 -16.4012 18.0446 1.58793e-008 -4.26701e-007 4.89019e-010 0.457164 8.81857 -3.25958 0.457158 8.81853 -3.25949 -4.54247 7.31448 -40.2936 3.20957 -7.21869 45.7178 -56.8215 47.0504 -22.6706 -4.88732 3.02068 -59.835 0.177577 1.67732 -11.4493 -9.54166e-015 -6.36111e-015 -1.59028e-015 -6.36111e-015 -3.18056e-015 -0 11.6475 -1.05071 27.9475 67.0533 25.756 8.11363 4.7212 8.76758 119.879 2.47381 3.24301 29.3097 -6.36111e-015 9.54166e-015 -3.18055e-015 -3.18055e-015 6.36111e-015 -3.18055e-015 12.5349 2.97986 -24.9809 
8.81827 85.7892 39.2067 -15.5566 -4.6753 -69.331 -0.427554 4.54378 -4.45422 18.367 -1.45737 5.07017 0.328993 26.2762 5.85417 -4.8767 6.68909 -32.9919 -3.87631e-006 2.80822e-006 7.34544e-007 -13.7816 -9.80241 9.9611 0.23308 41.0572 7.4837 -0.482773 -15.5007 19.015 1.58794e-008 -4.26701e-007 4.89028e-010 0.402247 8.9687 -3.05821 0.402253 8.96868 -3.05816 -4.06405 7.14399 -39.5742 3.37024 -6.8383 45.2148 -57.7069 46.1372 -22.4012 -4.99673 3.23342 -62.2117 -1.96433 4.68322 -12.3218 3.18055e-015 -3.18055e-015 4.77083e-015 -3.18055e-015 0 6.36111e-015 9.26845 -2.64101 27.8377 69.6876 23.202 5.20997 4.61029 8.93833 121.917 1.48095 5.23206 29.6201 -6.36111e-015 3.18055e-015 -1.59028e-015 -3.18055e-015 4.77083e-015 1.59028e-015 10.9514 6.05987 -23.0712 
9.61175 85.5409 41.9515 -15.1543 -3.33339 -72.624 -0.310122 4.50072 -4.41547 17.863 -3.33891 7.26211 0.382425 31.7014 5.67376 -5.44129 4.95824 -33.4661 -3.87631e-006 2.80822e-006 7.34544e-007 -13.9032 -12.0139 11.7977 0.214623 42.2667 7.29813 0.0336919 -13.8712 17.3866 1.58794e-008 -4.26701e-007 4.89028e-010 0.633929 8.88057 -2.98824 0.63394 8.88056 -2.98822 -4.70359 7.71122 -38.8943 4.46902 -6.65925 44.6768 -57.6259 46.5749 -22.9907 -5.07394 3.39809 -64.0182 -2.83586 2.74016 -13.2891 -6.36111e-015 -1.59028e-015 3.18055e-015 -6.36111e-015 1.59028e-015 6.36111e-015 8.91901 -3.68326 26.3746 70.6081 21.9384 3.82682 4.49414 9.10385 123.941 1.5039 5.04747 29.8573 3.18055e-015 4.77083e-015 -1.59028e-015 6.36111e-015 3.18056e-015 -0 8.48538 8.50225 -20.8814 
10.5987 85.2519 44.5468 -14.9854 -2.39555 -75.9706 -0.235252 4.59384 -4.39984 16.7029 -4.66714 9.39044 0.432381 35.7442 5.53563 -6.53364 3.6932 -29.5336 -3.87631e-006 2.80822e-006 7.34544e-007 -13.3248 -15.0822 13.3834 0.170117 46.2484 7.15706 1.39336 -13.4917 14.1286 1.58794e-008 -4.26701e-007 4.89016e-010 0.785979 9.06517 -2.96573 0.78597 9.06514 -2.96571 -4.7995 8.15176 -37.9855 4.60756 -7.09528 43.7748 -56.4526 47.2802 -25.1011 -5.08978 3.43364 -64.405 -2.81539 0.165984 -14.3857 6.36111e-015 -1.59028e-015 -1.59028e-015 6.36111e-015 -1.59028e-015 1.59028e-015 8.92491 -4.42032 24.1957 70.2539 21.6387 4.83566 4.41977 9.20355 125.186 2.01097 3.49116 30.39 -6.36111e-015 4.77083e-015 7.95139e-016 -3.18055e-015 4.77083e-015 3.97569e-015 7.86823 11.2434 -18.9699 
